<svg xmlns="http://www.w3.org/2000/svg" viewBox="0 0 420 360">
  <g transform="translate(60 40)" fill="none" stroke-linecap="round" stroke-linejoin="round">
    <path
      d="M0 88c20-28 54-28 74 0s54 28 74 0 54-28 74 0"
      stroke="#12c4d2"
      stroke-width="8"
    />
    <path
      d="M0 118c20-28 54-28 74 0s54 28 74 0 54-28 74 0"
      stroke="#45d6cf"
      stroke-width="7"
    />
    <path
      d="M0 148c20-28 54-28 74 0s54 28 74 0 54-28 74 0"
      stroke="#9ddff2"
      stroke-width="6"
    />
    <circle cx="74" cy="76" r="7" fill="#12c4d2" />
    <circle cx="118" cy="76" r="7" fill="#12c4d2" />
  </g>
  <g font-family="'Inter', 'Helvetica Neue', Arial, sans-serif" text-anchor="middle">
    <text
      x="210"
      y="250"
      fill="#0d2944"
      font-weight="700"
      font-size="52"
      letter-spacing="2"
    >
      BRISA CUBANA
    </text>
    <text
      x="210"
      y="288"
      fill="#1ecad3"
      font-weight="600"
      font-size="22"
      letter-spacing="8"
    >
      CLEAN INTELLIGENCE
    </text>
  </g>
</svg>
